<svg xmlns="http://www.w3.org/2000/svg" version="1.1" xmlns:xlink="http://www.w3.org/1999/xlink" xmlns:svgjs="http://svgjs.dev/svgjs" width="128" height="128" viewBox="0 0 128 128"><g transform="matrix(0.8046875,0,0,0.8046875,12.333870967741937,12.333870967741937)"><svg viewBox="0 0 155 155" data-background-color="#000000" preserveAspectRatio="xMidYMid meet" height="128" width="128" xmlns="http://www.w3.org/2000/svg" xmlns:xlink="http://www.w3.org/1999/xlink"><g id="tight-bounds" transform="matrix(1,0,0,1,0.25,0.25)"><svg viewBox="0 0 154.5 154.5" height="154.5" width="154.5"><g><svg></svg></g><g><svg viewBox="0 0 154.5 154.5" height="154.5" width="154.5"><g transform="matrix(1,0,0,1,60.067257960243566,59.016757278)"><svg viewBox="0 0 34.36548407951287 36.46648544399999" height="36.46648544399999" width="34.36548407951287"><g><svg viewBox="0 0 34.36548407951287 36.46648544399999" height="36.46648544399999" width="34.36548407951287"><g><svg viewBox="0 0 34.36548407951287 36.46648544399999" height="36.46648544399999" width="34.36548407951287"><g id="textblocktransform"><svg viewBox="0 0 34.36548407951287 36.46648544399999" height="36.46648544399999" width="34.36548407951287" id="textblock"><g><svg viewBox="0 0 34.36548407951287 36.46648544399999" height="36.46648544399999" width="34.36548407951287"><g><svg viewBox="0 0 34.36548407951287 36.46648544399999" height="36.46648544399999" width="34.36548407951287"><g><svg xmlns="http://www.w3.org/2000/svg" xmlns:xlink="http://www.w3.org/1999/xlink" version="1.1" x="0" y="0" viewBox="2.7659999999999982 0 90.469 96" enable-background="new 0 0 96 96" xml:space="preserve" height="36.46648544399999" width="34.36548407951287" class="icon-icon-0" data-fill-palette-color="accent" id="icon-0"></svg></g></svg></g></svg></g></svg></g></svg></g></svg></g></svg></g><g></g></svg></g><defs></defs><mask id="2dc2edf7-168d-4796-975f-733cade9fdad"><g id="SvgjsG3602"><svg viewBox="0 0 154.5 154.5" height="154.5" width="154.5"><g><svg></svg></g><g><svg viewBox="0 0 154.5 154.5" height="154.5" width="154.5"><g transform="matrix(1,0,0,1,60.067257960243566,59.016757278)"><svg viewBox="0 0 34.36548407951287 36.46648544399999" height="36.46648544399999" width="34.36548407951287"><g><svg viewBox="0 0 34.36548407951287 36.46648544399999" height="36.46648544399999" width="34.36548407951287"><g><svg viewBox="0 0 34.36548407951287 36.46648544399999" height="36.46648544399999" width="34.36548407951287"><g id="SvgjsG3601"><svg viewBox="0 0 34.36548407951287 36.46648544399999" height="36.46648544399999" width="34.36548407951287" id="SvgjsSvg3600"><g><svg viewBox="0 0 34.36548407951287 36.46648544399999" height="36.46648544399999" width="34.36548407951287"><g><svg viewBox="0 0 34.36548407951287 36.46648544399999" height="36.46648544399999" width="34.36548407951287"><g><svg xmlns="http://www.w3.org/2000/svg" xmlns:xlink="http://www.w3.org/1999/xlink" version="1.1" x="0" y="0" viewBox="2.7659999999999982 0 90.469 96" enable-background="new 0 0 96 96" xml:space="preserve" height="36.46648544399999" width="34.36548407951287" class="icon-icon-0" data-fill-palette-color="accent" id="SvgjsSvg3599"><g fill="white"><path d="M90.885 73.592c1.496-2.731 2.35-5.865 2.35-9.198 0-10.595-8.587-19.182-19.181-19.182-7.205 0-13.475 3.978-16.753 9.853l-30.17-15.047c0.184-0.842 0.283-1.715 0.283-2.611 0-1.822-0.405-3.545-1.113-5.102l13.322-11.65c1.84 1.287 4.076 2.049 6.494 2.049 6.27 0 11.352-5.082 11.352-11.352S52.387 0 46.117 0 34.766 5.082 34.766 11.352c0 2.422 0.765 4.66 2.057 6.504L24.083 28.996c-2.249-2.404-5.44-3.916-8.993-3.916-6.807 0-12.324 5.52-12.324 12.326 0 6.805 5.518 12.324 12.324 12.324 4.502 0 8.43-2.422 10.58-6.027l30.063 14.994c-0.559 1.8-0.86 3.713-0.86 5.696 0 2.353 0.444 4.597 1.22 6.679l-16.632 6.783c-2.097-3.381-5.83-5.639-10.102-5.639-6.566 0-11.891 5.324-11.891 11.893C17.469 90.676 22.793 96 29.359 96c6.568 0 11.893-5.324 11.893-11.891 0-0.895-0.106-1.762-0.293-2.598l16.89-6.889c3.399 5.372 9.377 8.95 16.205 8.95 3.994 0 7.701-1.223 10.772-3.312C87.346 78.565 89.432 76.275 90.885 73.592z" fill="white"></path></g></svg></g></svg></g></svg></g></svg></g></svg></g></svg></g></svg></g><g></g></svg></g><defs><mask></mask></defs></svg><rect width="154.5" height="154.5" fill="black" stroke="none" visibility="hidden"></rect></g></mask><linearGradient x1="0.054" x2="0.941" y1="0.5" y2="0.5" id="96fd48eb-59fb-46af-8289-9c1496da97d1"><stop stop-color="#0f3054" offset="0"></stop><stop stop-color="#3b8dcb" offset="0.498"></stop><stop stop-color="#0f3054" offset="1"></stop></linearGradient><rect width="154.5" height="154.5" fill="#000000" mask="url(#2dc2edf7-168d-4796-975f-733cade9fdad)" data-fill-palette-color="accent"></rect></svg><rect width="154.5" height="154.5" fill="none" stroke="none" visibility="hidden"></rect></g></svg></g></svg>