<svg xmlns="http://www.w3.org/2000/svg" version="1.1" xmlns:xlink="http://www.w3.org/1999/xlink" xmlns:svgjs="http://svgjs.dev/svgjs" width="128" height="128" viewBox="0 0 128 128"><g transform="matrix(0.8046875,0,0,0.8046875,12.333870967741937,12.333870967741937)"><svg viewBox="0 0 155 155" data-background-color="#000000" preserveAspectRatio="xMidYMid meet" height="128" width="128" xmlns="http://www.w3.org/2000/svg" xmlns:xlink="http://www.w3.org/1999/xlink"><g id="tight-bounds" transform="matrix(1,0,0,1,0.25,0.25)"><svg viewBox="0 0 154.5 154.5" height="154.5" width="154.5"><g><svg></svg></g><g><svg viewBox="0 0 154.5 154.5" height="154.5" width="154.5"><g transform="matrix(1,0,0,1,59.016757278,59.01675727800001)"><svg viewBox="0 0 36.46648544399999 36.466485443999986" height="36.466485443999986" width="36.46648544399999"><g><svg viewBox="0 0 36.46648544399999 36.466485443999986" height="36.466485443999986" width="36.46648544399999"><g><svg viewBox="0 0 36.46648544399999 36.466485443999986" height="36.466485443999986" width="36.46648544399999"><g id="textblocktransform"><svg viewBox="0 0 36.46648544399999 36.466485443999986" height="36.466485443999986" width="36.46648544399999" id="textblock"><g><svg viewBox="0 0 36.46648544399999 36.466485443999986" height="36.466485443999986" width="36.46648544399999"><g><svg viewBox="0 0 36.46648544399999 36.466485443999986" height="36.466485443999986" width="36.46648544399999"><g><svg xmlns="http://www.w3.org/2000/svg" xmlns:xlink="http://www.w3.org/1999/xlink" version="1.1" x="0" y="0" viewBox="18.399999999999995 18.4 53.60000000000001 53.6" enable-background="new 0 0 90 90" xml:space="preserve" height="36.466485443999986" width="36.46648544399999" class="icon-icon-0" data-fill-palette-color="accent" id="icon-0"></svg></g></svg></g></svg></g></svg></g></svg></g></svg></g></svg></g><g></g></svg></g><defs></defs><mask id="9d24b190-9251-463d-819e-2cbd51cda24b"><g id="SvgjsG2507"><svg viewBox="0 0 154.5 154.5" height="154.5" width="154.5"><g><svg></svg></g><g><svg viewBox="0 0 154.5 154.5" height="154.5" width="154.5"><g transform="matrix(1,0,0,1,59.016757278,59.01675727800001)"><svg viewBox="0 0 36.46648544399999 36.466485443999986" height="36.466485443999986" width="36.46648544399999"><g><svg viewBox="0 0 36.46648544399999 36.466485443999986" height="36.466485443999986" width="36.46648544399999"><g><svg viewBox="0 0 36.46648544399999 36.466485443999986" height="36.466485443999986" width="36.46648544399999"><g id="SvgjsG2506"><svg viewBox="0 0 36.46648544399999 36.466485443999986" height="36.466485443999986" width="36.46648544399999" id="SvgjsSvg2505"><g><svg viewBox="0 0 36.46648544399999 36.466485443999986" height="36.466485443999986" width="36.46648544399999"><g><svg viewBox="0 0 36.46648544399999 36.466485443999986" height="36.466485443999986" width="36.46648544399999"><g><svg xmlns="http://www.w3.org/2000/svg" xmlns:xlink="http://www.w3.org/1999/xlink" version="1.1" x="0" y="0" viewBox="18.399999999999995 18.4 53.60000000000001 53.6" enable-background="new 0 0 90 90" xml:space="preserve" height="36.466485443999986" width="36.46648544399999" class="icon-icon-0" data-fill-palette-color="accent" id="SvgjsSvg2504"><path d="M63.2 54.4c-2.7 0-5.1 1.2-6.8 3.2L35.7 47.4c0.2-0.7 0.3-1.4 0.3-2.1 0-0.7-0.1-1.5-0.3-2.1l20.8-10.3c1.6 1.9 4 3.2 6.8 3.2C68 36 72 32 72 27.2s-3.9-8.8-8.8-8.8c-4.8 0-8.8 3.9-8.8 8.8 0 0.7 0.1 1.3 0.2 2L33.8 39.5c-1.6-1.9-4-3.1-6.6-3.1-4.8 0-8.8 3.9-8.8 8.8s3.9 8.8 8.8 8.8c2.7 0 5-1.2 6.6-3.1l20.8 10.3c-0.1 0.6-0.2 1.3-0.2 2 0 4.8 3.9 8.8 8.8 8.8C68 72 72 68 72 63.2S68 54.4 63.2 54.4zM63.2 22.2c2.8 0 5 2.3 5 5 0 2.8-2.3 5-5 5-2.8 0-5-2.3-5-5C58.2 24.4 60.4 22.2 63.2 22.2zM27.2 50.2c-2.8 0-5-2.3-5-5 0-2.8 2.3-5 5-5 2.8 0 5 2.3 5 5C32.2 48 30 50.2 27.2 50.2zM63.2 68.2c-2.8 0-5-2.3-5-5 0-2.8 2.3-5 5-5 2.8 0 5 2.3 5 5C68.2 66 66 68.2 63.2 68.2z" fill="white"></path></svg></g></svg></g></svg></g></svg></g></svg></g></svg></g></svg></g><g></g></svg></g><defs><mask></mask></defs></svg><rect width="154.5" height="154.5" fill="black" stroke="none" visibility="hidden"></rect></g></mask><linearGradient x1="0.054" x2="0.941" y1="0.5" y2="0.5" id="79cf1b29-dddd-42c1-b5cf-b47b4a87fad0"><stop stop-color="#0f3054" offset="0"></stop><stop stop-color="#3b8dcb" offset="0.498"></stop><stop stop-color="#0f3054" offset="1"></stop></linearGradient><rect width="154.5" height="154.5" fill="#000000" mask="url(#9d24b190-9251-463d-819e-2cbd51cda24b)" data-fill-palette-color="accent"></rect></svg><rect width="154.5" height="154.5" fill="none" stroke="none" visibility="hidden"></rect></g></svg></g></svg>